<svg xmlns="http://www.w3.org/2000/svg" viewBox="0 0 65.792 72.001"><g data-name="Layer 2"><path d="M65.455 64.28a4.5 4.5 0 0 0-2.894-2.4l-.168-.063-3.077-1.152a25.84 25.84 0 0 0 5.244-15.238c0-8.824-6.528-15.293-10.918-17.487a29.722 29.722 0 0 0-1.244-.562l-.554-.238c-.2-.69-.428-1.41-.659-2.108a8.222 8.222 0 0 0 3.292-1.806l.377-.451-.115-.575a5.02 5.02 0 0 0-.264-.844 7.884 7.884 0 0 0 6.342-10.839C59.731 7.317 55.971 0 44.355 0 29.943 0 21.973 13.125 21.973 22.2a12.793 12.793 0 0 0 3.742 9.434 70.89 70.89 0 0 0-3.412 5.609 3.979 3.979 0 0 0-1.28 1.419 5.38 5.38 0 0 0-.675 1.905 6.682 6.682 0 0 0-2.066 3.818L9.2 40.627c-.015 0-1.514-.56-2.563-1.026a1.428 1.428 0 0 1-.168-.088v-.153l.015-.192-.045-.187a2.548 2.548 0 0 0-1.648-1.589 2.168 2.168 0 0 0-.839-.129 1.853 1.853 0 0 0-.748.122 3.371 3.371 0 0 0-.64.374 4.913 4.913 0 0 0-1 .962 5.876 5.876 0 0 0-1.135 4.114A2.232 2.232 0 0 0 1.7 44.552a5.163 5.163 0 0 0 1.281.358l.134.013h.07a2.232 2.232 0 0 0 1.332-.515c.029-.02.058-.044.087-.065 1.954.914 5.456 2.556 9.193 4.309C9.9 51.8 3.108 57.382 2.54 58.007c-.708.783-2.981 3.53-2.465 6.04a3.322 3.322 0 0 0 1.295 2.02 3.862 3.862 0 0 0 .736 2.247 3.881 3.881 0 0 0 1.534 1.345 2.986 2.986 0 0 0 .637 1.018A4.518 4.518 0 0 0 7.439 72a3.393 3.393 0 0 0 1.054-.16 7.564 7.564 0 0 0 3.386-2.37 16.345 16.345 0 0 0 1.04-1.37c.148-.211.277-.4.4-.545 1.092-1.356 3.844-5.527 6.048-8.925.055.165.2.587.224.644l.044.108c.081.217.173.448.275.692l.239.6.019-.012c1.91 4.193 6.773 11.138 17.965 11.138a25.457 25.457 0 0 0 13.4-3.928l.262-.162c3.418 1.784 5.96 3.1 6.632 3.418.055.027.144.082.251.142a5.123 5.123 0 0 0 1.394.642 3.912 3.912 0 0 0 .734.071c1.756 0 3.327-1.223 4.311-3.357a5.182 5.182 0 0 0 .333-4.341m-1.444 3.83c-.7 1.517-1.986 2.928-3.7 2.6a9.981 9.981 0 0 1-1.352-.686l-.318-.154a.157.157 0 0 0-.026-.014l-.444-.224-.081-.041a131.66 131.66 0 0 1-.551-.282l-.13-.066c-.2-.1-.419-.215-.65-.334l-.2-.1-.667-.346-.341-.178-.725-.377-.375-.2-.446-.237q-.468-.246-.966-.5l-.1-.053-1.174-.613-.125-.064a7.7 7.7 0 0 0-.745.588 24.214 24.214 0 0 1-12.757 3.742c-10.015 0-15.264-5.912-17.405-11.748a1.042 1.042 0 0 1-.036-.106 20.012 20.012 0 0 1-.276-.809q-.107-.344-.2-.69c-.018-.057-.031-.113-.045-.17 0-.02-.011-.039-.016-.061q-.18-.689-.306-1.357c-3.168 4.93-6.364 9.773-7.483 11.162-.344.424-.787 1.162-1.409 1.882a6.464 6.464 0 0 1-2.843 2.009c-1.287.423-3.491-.561-3.4-1.986a2.224 2.224 0 0 1-1.6-1.078 2.544 2.544 0 0 1-.432-2.19c-2.793-1.278-1.019-4.622.769-6.595.531-.586 8.88-7.449 12.64-10.453-4.43-2.078-8.824-4.138-11.057-5.183-.943-.441-1.289.573-1.912.5a4.113 4.113 0 0 1-.96-.274 1.079 1.079 0 0 1-.51-.669 4.663 4.663 0 0 1 .874-3.278 3.658 3.658 0 0 1 .743-.718 2.326 2.326 0 0 1 .4-.242 1.667 1.667 0 0 1 .656.015s.811.3.916.737a5.29 5.29 0 0 0 .026.675c.045.148.2.475.856.775 1.108.491 2.647 1.06 2.647 1.06s4.377 1.811 9.751 4.031a1.844 1.844 0 0 1 .96-.539 4.859 4.859 0 0 1 2.107-4.055c-.255-.83.767-2.842 1.6-3.033a68.958 68.958 0 0 1 4.173-6.788l-.049.063s-.5-.465-.691-.657A11.6 11.6 0 0 1 23.2 22.2c0-8.475 7.638-20.973 21.159-20.973 10.616 0 14.236 6.512 15.315 9.725a6.664 6.664 0 0 1-6.125 9.246c-.431 0-.841.02-1.078.029a6.691 6.691 0 0 1 1.072 2.215c-.669.8-3.1 1.566-3.893 1.789.016.19.753 2.18 1.2 3.9l1.068.378c.485.208.893.388 1.184.534 4.191 2.1 10.239 8.149 10.239 16.391A24.067 24.067 0 0 1 59.158 58.8q-.567.853-1.2 1.664a23.02 23.02 0 0 1-.625.773c1.96.736 3.492 1.309 4.263 1.6l.1.039.43.16c1.5.474 3.391 1.794 1.879 5.08" fill="#fff"/><path d="M44.588 55.75c.076.076.141.15.2.222.229-.3.712-.927.754-.985a14.129 14.129 0 0 0 2.545-7.31 7.942 7.942 0 0 0-1.85-5.251c-.053-.063-.1-.131-.157-.193l-.683-.708q-.3.245-.635.492l-.087.065c-.2.148-.4.3-.62.449-.091.063-.19.13-.284.2-.17.116-.337.232-.518.352-.294.194-.6.392-.93.6a7.641 7.641 0 0 1 .9 3.513 7.815 7.815 0 0 1-1.653 4.632 7.55 7.55 0 0 1-.626.716c.856.965 1.71 1.905 2.39 2.711a1.911 1.911 0 0 1 1.252.5m-.139-8.563a8.719 8.719 0 0 0-.572-3.051c.51-.334.964-.653 1.391-.967a6.764 6.764 0 0 1 1.6 4.507 12.9 12.9 0 0 1-2.324 6.609 3.32 3.32 0 0 0-.566-.173c-.428-.5-.906-1.033-1.4-1.59a9.034 9.034 0 0 0 1.874-5.336m-9.086 10.552l-1.039-.543-.525-.27c-.488-.253-.963-.5-1.408-.727-.078.229-.209.405-.464.39-.506-.03-.881-.815-.948-1.11v-.006l-.319-.162c.067.133.138.268.223.4A6.443 6.443 0 0 0 32.55 57.4a7.775 7.775 0 0 0 2.05 1.007 10.451 10.451 0 0 0 3.012.5l-.5-.263-1.153-.6-.59-.307m.95-38.978l.022-.051.029-.069a7.532 7.532 0 0 1 1.275-2.3 3.69 3.69 0 0 1-.44-.642 5.183 5.183 0 0 0-.886 3.059m9.424-6.415a5.522 5.522 0 0 1 1 .846c.05-.162.191-.611.3-.938.028-.12.211-.714.245-.831a6.716 6.716 0 0 0-2.975.154 16.2 16.2 0 0 1 1.435.769" fill="#fff"/><path d="M62.132 63.03l-.43-.16-.1-.039c-.771-.289-2.3-.861-4.263-1.6.11-.129.319-.38.625-.773q.631-.815 1.2-1.664a24.055 24.055 0 0 0 4.178-13.369c0-8.242-6.048-14.3-10.239-16.391-.29-.146-.7-.326-1.184-.534l-1.068-.378c-.446-1.717-1.183-3.707-1.2-3.9.8-.223 3.224-.989 3.893-1.789a6.659 6.659 0 0 0-1.071-2.215c.237-.01.647-.025 1.078-.029a6.666 6.666 0 0 0 6.126-9.246c-1.081-3.213-4.7-9.725-15.316-9.725C30.834 1.224 23.2 13.722 23.2 22.2a11.606 11.606 0 0 0 3.424 8.612c.187.192.693.657.693.657l.048-.062a69 69 0 0 0-4.175 6.775c-.83.191-1.852 2.2-1.6 3.033a4.861 4.861 0 0 0-2.106 4.055 1.84 1.84 0 0 0-.96.539l-9.752-4.035s-1.539-.568-2.647-1.059c-.659-.3-.811-.627-.857-.775a5.384 5.384 0 0 1-.026-.675c-.105-.439-.916-.737-.916-.737a1.669 1.669 0 0 0-.656-.015 2.344 2.344 0 0 0-.4.242 3.654 3.654 0 0 0-.742.718 4.664 4.664 0 0 0-.875 3.278 1.083 1.083 0 0 0 .51.669 4.113 4.113 0 0 0 .96.274c.623.072.969-.941 1.912-.5 2.235 1.045 6.627 3.1 11.057 5.183-3.76 3-12.108 9.867-12.64 10.453-1.792 1.97-3.566 5.316-.773 6.594a2.544 2.544 0 0 0 .432 2.191 2.223 2.223 0 0 0 1.6 1.078c-.088 1.426 2.115 2.409 3.4 1.985a6.45 6.45 0 0 0 2.843-2.008c.622-.72 1.066-1.458 1.409-1.882 1.119-1.389 4.315-6.232 7.483-11.162.083.446.186.9.305 1.357 0 .021.011.041.015.061.015.057.029.113.046.17.063.23.13.461.2.69.011.038.024.074.035.109.074.237.156.47.24.7.012.035.022.071.036.106 2.142 5.837 7.391 11.749 17.405 11.749a24.215 24.215 0 0 0 12.758-3.742 7.649 7.649 0 0 1 .744-.588l.125.064 1.174.613.1.053.966.5.449.232.375.2.725.377.341.178.667.346.2.1.649.334.131.066.551.282.081.041.444.224a.162.162 0 0 1 .026.014l.318.154a9.981 9.981 0 0 0 1.352.686c1.716.332 3-1.079 3.7-2.6 1.512-3.286-.375-4.606-1.879-5.08M51.168 30.405l.937.418c.025.012.056.024.079.038 3.724 1.859 9.113 7.316 9.113 14.566a22.707 22.707 0 0 1-5.339 14.279 4.929 4.929 0 0 1-.663.76c-1.315-.5-2.741-1.033-4.2-1.586l-.051-.019-2.174-.823-.045-.018-2.208-.84a19.813 19.813 0 0 0 1.259-2.02c.029-.052.059-.1.087-.155.064-.119.134-.235.2-.355a21.064 21.064 0 0 0 1.029-2.336 13.874 13.874 0 0 0 .93-4.211c0-.142.02-.295.016-.426a9.045 9.045 0 0 0-2.611-6.705l-.688-.711c.239-.233.473-.467.7-.706l.02-.02c.229-.243.455-.49.679-.746a11.947 11.947 0 0 0 2.936-8.383M37.611 58.911a10.448 10.448 0 0 1-3.011-.5 7.778 7.778 0 0 1-2.05-1.011 6.453 6.453 0 0 1-1.67-1.688 4.3 4.3 0 0 1-.223-.4l.318.163c.067.3.443 1.082.949 1.113.255.015.386-.162.464-.392l1.407.728.529.274 1.04.539.59.307 1.153.6.5.262m-7.39-4.68a5.983 5.983 0 0 1-.272-1.763 13.668 13.668 0 0 0 1.309.9 4.412 4.412 0 0 0-.314 1.237l-.719-.365M39.4 58.98c-2.56-1.334-4.954-2.58-6.886-3.576 0-.027 0-.059.007-.082a4.071 4.071 0 0 1 .35-1.156 7.66 7.66 0 0 0 2.769.547 7.913 7.913 0 0 0 1.895-.23c.784.316 1.764.7 2.875 1.134a4.832 4.832 0 0 0-1.01 3.363m-.748-4.88a6.935 6.935 0 0 0 1.111-.6c.713.715 1.353 1.355 1.578 1.592-.031 0-.06.016-.091.023-.964-.374-1.841-.719-2.6-1.018m2.294-1.569a7.428 7.428 0 0 0 .627-.716 7.815 7.815 0 0 0 1.653-4.632 7.456 7.456 0 0 0-.5-2.635 7.571 7.571 0 0 0-.4-.878c.329-.2.636-.4.93-.6.181-.119.348-.235.518-.352.094-.066.193-.132.284-.2.216-.151.42-.3.62-.449l.087-.065c.22-.164.432-.33.635-.492l.683.707c.055.063.1.129.157.193a7.942 7.942 0 0 1 1.85 5.252 14.126 14.126 0 0 1-2.545 7.31c-.042.059-.525.687-.754.985a6.163 6.163 0 0 0-.2-.222 1.916 1.916 0 0 0-1.252-.5c-.68-.806-1.533-1.746-2.39-2.711m11.64-30.616a4.842 4.842 0 0 1-1.522-.279c-1.02-.294-2.177-.628-3.021.121l.206.233c.717-.637 1.739-.34 2.727-.053a5.924 5.924 0 0 0 1.477.293 15.948 15.948 0 0 1-3.813 1.289 1.888 1.888 0 0 1-1.371-2.139c0-.722.4-2.045 1.659-1.455a1.571 1.571 0 0 1 .542-1.609 9.049 9.049 0 0 1 3.117 3.6m-27.352.292c0-7.635 6.993-18.932 19.12-18.932 9.562 0 12.543 5.776 13.408 8.408a5.024 5.024 0 0 1 .324 1.949 4.545 4.545 0 0 1-.767 2.552l-.008.011a4.436 4.436 0 0 1-.469.567c-.074.076-.153.148-.232.22-.105.1-.217.186-.333.272a4.579 4.579 0 0 1-.387.257 4.227 4.227 0 0 1-.394.21c-.108.052-.219.1-.331.142a4.78 4.78 0 0 1-.636.191 4.979 4.979 0 0 1-.13.026 4.683 4.683 0 0 1-.868.084 7.272 7.272 0 0 1-1.857-.3 4.248 4.248 0 0 1-2.323-1.711 3.285 3.285 0 0 1-.413-1.275 9.638 9.638 0 0 1-.093-1.248 4.873 4.873 0 0 1 1.29-3.221c-.358-.457-1.382-1.17-4.306-1.17a11.179 11.179 0 0 0-3.31.554c-.579.2-1.4.46-1.4.46a13.841 13.841 0 0 1-4.851-2.872c-.51.668-.184 2.554-.032 2.968-.479-.351-.606-.7-.7-.67a7.821 7.821 0 0 0 1.031 3.2c-.2.189-.808-.584-.744-.361a5.193 5.193 0 0 0 .512 1.539c-2.809 2.928-1.569 6.711-.834 7.332 0 0-.275 1.371-.385 1.977a1.513 1.513 0 0 0-.4.189 27.983 27.983 0 0 0-6.246 6.329 7.288 7.288 0 0 1-.714-.627 9.442 9.442 0 0 1-2.522-7.05m22.047-10.783c-.056.153-.1.32-.142.482-.034.117-.074.229-.1.349-.105.327-.246.776-.3.938a5.463 5.463 0 0 0-1-.846 16.143 16.143 0 0 0-1.436-.769 6.718 6.718 0 0 1 2.976-.154M37.2 15.7a3.745 3.745 0 0 0 .441.643 7.5 7.5 0 0 0-1.275 2.295l-.029.07-.022.051A5.189 5.189 0 0 1 37.2 15.7m-1.988 8.59a1.816 1.816 0 0 0 .289 1.264c.673-1.6.673-6.082 2.921-8.8a1.741 1.741 0 0 0 1.116.336s-2.091-1.454-2.344-3.4a5.947 5.947 0 0 0 2.925 1.41 7.216 7.216 0 0 1-3.447-4.086c2.187 1.994 3.75 1.994 3.75 1.994a5.51 5.51 0 0 1-3.7-4.373c2.2 2.136 5.747 2.737 8.558 4.469a8.4 8.4 0 0 1 3.7 4.532 4.4 4.4 0 0 1-1.754.384c-.781 0-1.34-.639-1.9-.527-.974.191-1.548 1.357-3 1.067a7.86 7.86 0 0 1 2.228 5.54c1.837-.046 5.732 2.825 5.732 5.938 0 3.313-.624 5.759-2.726 8.163a23.074 23.074 0 0 1-5.7 4.709 7.928 7.928 0 0 0-2.072-2.042c3.335-2.134 5.808-4.622 5.917-7.712a8.81 8.81 0 0 0-2.256-5.931.383.383 0 1 0-.528.554 4.4 4.4 0 0 1 .3.339 8.059 8.059 0 0 1 1.72 5.026c-.106 2.824-2.493 5.171-5.884 7.277a10.574 10.574 0 0 0-3.544-1.126 17.621 17.621 0 0 0 1.936-1.275.451.451 0 0 0 .057-.065c1.954-.047 4.449-1.657 5.286-5.553a.383.383 0 0 0-.748-.162c-.813 3.784-3.225 5.027-4.762 4.951a1.581 1.581 0 0 1-1.285-.666 7.762 7.762 0 0 0 3.374-3.67.384.384 0 1 0-.707-.3c-1.077 2.551-3.792 4.039-5.371 3.961a1.947 1.947 0 0 1-1.274-.48 8.575 8.575 0 0 0 3.515-3.11.383.383 0 1 0-.627-.44 7.573 7.573 0 0 1-3.441 2.946.429.429 0 0 0-.309.105 4.985 4.985 0 0 1-1.663.2c-.189-.011-.343-.145-.32-.451A1.637 1.637 0 0 1 30.1 34.1a.383.383 0 1 0-.387-.661 2.252 2.252 0 0 0-1.228 2.409 18.654 18.654 0 0 1-4.04 1.772c.8-1.5 5.346-9.712 10.773-13.334m11.3-4.66a1.131 1.131 0 1 1-1.134-1.126 1.131 1.131 0 0 1 1.131 1.131M23.85 38.556a15 15 0 0 0 1.619-.469 19.348 19.348 0 0 0 3.572-1.672 1.363 1.363 0 0 0 .414.087 5.659 5.659 0 0 0 1.791-.194 1.947 1.947 0 0 0 .575.545 37.765 37.765 0 0 1-9.266 3.906c-.351.092.131-1.233 1.294-2.2m-1.765 3.107c2.97-.687 8.27-2.747 10.572-4.465a3.157 3.157 0 0 0 .594.085 4.852 4.852 0 0 0 2.05-.426 2.219 2.219 0 0 0 1.155.934 25.381 25.381 0 0 1-2.266 1.377c-.237-.01-.474-.018-.722-.018a15.056 15.056 0 0 0-10.629 4.789c-.882.272-1.727.5-2.506.685-.046-.424.109-1.353 1.753-2.965m-17.4.548a5.581 5.581 0 0 1-1.124-.61c.1-.76.3-1.28.159-1.182a3.945 3.945 0 0 0-.786 2.467l-.52-.185c-.184-2.7 1.568-3.487 1.568-3.487l.528.263s-.369 1.182 1.3 1.939c1.127.5 2.678 1.073 2.678 1.073l9.6 3.97a3.779 3.779 0 0 0-.2.525 13.473 13.473 0 0 0-1.15.869C10.657 45 4.686 42.211 4.686 42.211m14.994 12.36c-3.323 5.084-6.9 10.274-8.013 11.652-.68.843-1.745 2.918-3.836 3.6-1.318.435-2.425-.841-2.138-1.366l13.074-16.534-.818-.048L6.127 66.717c-1.027 1.552-1.706 1.214-2.284.383-.637-.914-.394-1.754.433-2.775 1.07-1.119 12.017-12.452 12.017-12.452l-.732-.1L3.6 64.134c-.782.876-1.189-.336-1.144-.977.111-1.586.99-2.645 2.125-3.9 1.274-1.406 12.161-10.723 12.834-11.117-.28 1.158 0 2.154 1.093 1.982a.422.422 0 0 0 .146-.026c.423-.152.814-.294 1.19-.435a13.154 13.154 0 0 0-.305 2.826 16.2 16.2 0 0 0 .141 2.084m.394-5.795c-.609.216-1.171.416-1.665.594-.155-.115-.134-.549.016-1.09.3-1.1 1.142-2.648 2.12-2.935.464-.135.973-.29 1.512-.464a12.3 12.3 0 0 0-1.983 3.895m28.664 16.948a21.982 21.982 0 0 1-10.6 2.809c-9.273 0-13.964-5.636-15.719-11.022a16.485 16.485 0 0 1-.835-5.023c0-7.595 6.77-11.295 11.889-11.295 5.867 0 7.714 3.572 7.714 5.994a5.561 5.561 0 0 1-5.545 5.484c-3.572 0-6.758-4.08-6.758-4.08s-1.012 1.4-1.012 4.666a7.6 7.6 0 0 0 .71 2.575h.018c1.044 2.24 3.533 5.128 9.4 5.128a6 6 0 0 0 .771-.024c.072-.008.707-.047 1.067-.106.009.006.019.011.027.018a.745.745 0 0 0 .144.088.514.514 0 0 0 .062.024.649.649 0 0 0 .124.033.425.425 0 0 0 .059.009.554.554 0 0 0 .171-.01h.008a.421.421 0 0 0 .139-.066c.013-.01.024-.022.036-.032a.389.389 0 0 0 .074-.1c.008-.016.017-.031.024-.047a.529.529 0 0 0 .037-.2l1.987 1.039.776.405.766.4c1.8.941 3.583 1.876 5.257 2.75-.193.144-.523.387-.794.582m14.579 2.067c-.669 1.454-1.709 2.385-2.86 2.162-.246-.048-1.5-1.844.856-4.871a4.073 4.073 0 0 0-2.029 4.244c-1.328-.624-10.448-5.418-18.51-9.629.218-1.559 1.366-3.657 2.771-2.789a2.285 2.285 0 0 0 1.293.415c7.587 2.9 17.046 6.435 17.046 6.435 1.235.383 2.689 1.3 1.432 4.033" fill="#002b5c"/><path d="M28.475 29.875a28 28 0 0 1 6.246-6.328 1.475 1.475 0 0 1 .4-.189c.11-.605.385-1.977.385-1.977-.735-.622-1.975-4.4.834-7.332a5.178 5.178 0 0 1-.511-1.539c-.064-.223.542.551.743.361a7.841 7.841 0 0 1-1.03-3.2c.1-.031.224.318.7.67-.152-.414-.478-2.3.032-2.968a13.8 13.8 0 0 0 4.851 2.872s.82-.264 1.4-.459a11.153 11.153 0 0 1 3.311-.553c2.923 0 3.948.711 4.305 1.168a4.868 4.868 0 0 0-1.29 3.219 9.642 9.642 0 0 0 .093 1.25 3.269 3.269 0 0 0 .412 1.275 4.248 4.248 0 0 0 2.323 1.711 7.279 7.279 0 0 0 1.857.3 4.683 4.683 0 0 0 .868-.084c.044-.008.087-.017.129-.027a4.477 4.477 0 0 0 .636-.191c.113-.042.224-.09.332-.141a4.219 4.219 0 0 0 .394-.21 4.359 4.359 0 0 0 .387-.258 4.527 4.527 0 0 0 .565-.491 4.482 4.482 0 0 0 .47-.567l.008-.012a4.541 4.541 0 0 0 .767-2.553 5 5 0 0 0-.324-1.946c-.868-2.635-3.85-8.409-13.413-8.409-12.126 0-19.12 11.295-19.12 18.93a9.445 9.445 0 0 0 2.525 7.053 7.152 7.152 0 0 0 .714.626M43.51 61.992l-.776-.405-1.987-1.039a.512.512 0 0 1-.038.2.41.41 0 0 1-.023.047.369.369 0 0 1-.075.1.467.467 0 0 1-.036.032.408.408 0 0 1-.139.066h-.007a.587.587 0 0 1-.172.01.4.4 0 0 1-.058-.009.627.627 0 0 1-.125-.033.528.528 0 0 1-.062-.024.773.773 0 0 1-.143-.088l-.026-.018c-.361.057-1 .1-1.067.106a6.014 6.014 0 0 1-.772.024c-5.868 0-8.358-2.888-9.4-5.128h-.026a7.622 7.622 0 0 1-.71-2.575c0-3.263 1.013-4.666 1.013-4.666s3.187 4.08 6.758 4.08a5.561 5.561 0 0 0 5.546-5.484c0-2.422-1.849-5.994-7.715-5.994-5.12 0-11.889 3.7-11.889 11.295a16.47 16.47 0 0 0 .835 5.023c1.754 5.387 6.446 11.022 15.718 11.022a21.983 21.983 0 0 0 10.606-2.809c.271-.2.6-.438.794-.582l-5.257-2.75-.766-.4m4.042-22.459l-.02.02c-.227.239-.46.474-.7.706l.688.71a8.844 8.844 0 0 1 2.612 6.7c0 .126-.007.271-.017.426a13.844 13.844 0 0 1-.93 4.212 17 17 0 0 1-1.028 2.336c-.061.12-.131.236-.2.355l-.088.155a19.813 19.813 0 0 1-1.259 2.02l2.208.84.044.018 2.174.822c.017.008.034.014.051.02 1.46.553 2.887 1.09 4.2 1.586a4.895 4.895 0 0 0 .663-.759A22.711 22.711 0 0 0 61.3 45.427c0-7.25-5.389-12.707-9.113-14.565-.023-.014-.054-.026-.079-.038l-.936-.418a11.948 11.948 0 0 1-2.937 8.383q-.336.384-.679.746" fill="#fff"/><path d="M41.341 55.1c-.226-.236-.864-.877-1.578-1.592a6.956 6.956 0 0 1-1.111.6c.757.3 1.634.645 2.6 1.018.031-.007.06-.019.092-.023" fill="#fff"/><path d="M37.532 54.482a7.873 7.873 0 0 1-1.895.23 7.648 7.648 0 0 1-2.77-.548 4.073 4.073 0 0 0-.349 1.157c0 .021 0 .055-.008.082 1.932 1 4.327 2.242 6.886 3.576a4.835 4.835 0 0 1 1.01-3.363 272.199 272.199 0 0 1-2.875-1.135m-7.582-2.012a5.988 5.988 0 0 0 .272 1.763l.719.365a4.4 4.4 0 0 1 .318-1.228 13.741 13.741 0 0 1-1.309-.9M17.9 46.983a3.83 3.83 0 0 1 .2-.525l-9.6-3.97s-1.551-.573-2.678-1.073c-1.673-.758-1.3-1.939-1.3-1.939l-.528-.263S2.23 40 2.414 42.7l.52.184a3.942 3.942 0 0 1 .786-2.467c.142-.1-.054.422-.159 1.182a5.612 5.612 0 0 0 1.126.612s5.97 2.789 12.062 5.642a13.379 13.379 0 0 1 1.15-.869m43.984 16.772s-9.459-3.533-17.047-6.433a2.289 2.289 0 0 1-1.293-.416c-1.4-.869-2.553 1.23-2.771 2.788 8.061 4.212 17.181 9.006 18.51 9.63a4.071 4.071 0 0 1 2.028-4.244c-2.358 3.025-1.1 4.824-.856 4.872 1.15.222 2.191-.709 2.86-2.163 1.256-2.735-.2-3.65-1.432-4.034" fill="#ffe512"/><path d="M18.655 50.1a.422.422 0 0 1-.146.026c-1.1.172-1.373-.824-1.093-1.982-.673.395-11.561 9.711-12.832 11.117-1.135 1.256-2.014 2.315-2.125 3.9-.045.641.362 1.853 1.144.977l11.957-12.36.732.1S5.346 63.208 4.276 64.327c-.828 1.021-1.07 1.862-.433 2.775.579.828 1.262 1.164 2.285-.386L17.95 51.875l.818.048L5.693 68.462c-.287.526.82 1.8 2.138 1.366 2.091-.687 3.157-2.761 3.836-3.6 1.113-1.378 4.69-6.568 8.013-11.652a16.2 16.2 0 0 1-.141-2.084 13.14 13.14 0 0 1 .305-2.826c-.376.141-.766.282-1.19.435" fill="#d31245"/><path d="M44.252 19.63a1.131 1.131 0 1 0 1.132-1.13 1.131 1.131 0 0 0-1.131 1.131m1.819.025a.9.9 0 1 1-1.565-.61.906.906 0 0 0-.017.108s.6-.2.942.7c.438-.662-.061-.862-.221-1.062a.679.679 0 0 0-.069-.039h.028a.9.9 0 0 1 .9.9" fill="#fff"/><path d="M49.47 18.308a1.57 1.57 0 0 0-.541 1.609c-1.263-.591-1.659.733-1.659 1.455a1.888 1.888 0 0 0 1.37 2.139 15.856 15.856 0 0 0 3.813-1.289 5.848 5.848 0 0 1-1.477-.295c-.988-.285-2.009-.582-2.727.055l-.206-.233c.843-.749 2-.415 3.02-.121a4.816 4.816 0 0 0 1.522.279 9.037 9.037 0 0 0-3.117-3.6" fill="#ffe512"/><path d="M20.545 45.346c-.979.288-1.816 1.836-2.12 2.935-.15.541-.17.975-.016 1.09.493-.178 1.056-.378 1.665-.594a12.278 12.278 0 0 1 1.983-3.895c-.54.174-1.049.33-1.512.464m2.011-4.588a37.692 37.692 0 0 0 9.266-3.906 1.918 1.918 0 0 1-.574-.546 5.613 5.613 0 0 1-1.793.2 1.367 1.367 0 0 1-.414-.087 19.371 19.371 0 0 1-3.571 1.672 15.062 15.062 0 0 1-1.619.469c-1.164.97-1.645 2.3-1.295 2.2m.282 3.182a15.058 15.058 0 0 1 10.63-4.789c.248 0 .485.008.722.018a25.619 25.619 0 0 0 2.266-1.377 2.209 2.209 0 0 1-1.156-.934 4.875 4.875 0 0 1-2.05.424 3.242 3.242 0 0 1-.594-.086c-2.3 1.718-7.6 3.777-10.572 4.466-1.644 1.61-1.8 2.541-1.753 2.963a36.916 36.916 0 0 0 2.506-.685" fill="#d31245"/><path d="M29.711 33.442a.383.383 0 1 1 .386.662 1.634 1.634 0 0 0-.925 1.182c-.024.307.131.441.319.451a4.918 4.918 0 0 0 1.664-.2.425.425 0 0 1 .309-.1 7.585 7.585 0 0 0 3.441-2.947.383.383 0 1 1 .627.439 8.577 8.577 0 0 1-3.516 3.111 1.962 1.962 0 0 0 1.275.483c1.579.076 4.294-1.412 5.371-3.963a.384.384 0 0 1 .707.3 7.763 7.763 0 0 1-3.374 3.67 1.582 1.582 0 0 0 1.286.666c1.537.076 3.948-1.166 4.761-4.951a.383.383 0 0 1 .749.162c-.837 3.9-3.332 5.506-5.286 5.553a.406.406 0 0 1-.057.065 17.453 17.453 0 0 1-1.937 1.276 10.56 10.56 0 0 1 3.543 1.126c3.391-2.107 5.779-4.453 5.885-7.277a8.054 8.054 0 0 0-1.721-5.026 4.426 4.426 0 0 0-.3-.34.382.382 0 1 1 .527-.553 8.811 8.811 0 0 1 2.255 5.924c-.11 3.09-2.582 5.578-5.917 7.713a7.906 7.906 0 0 1 2.073 2.041 23.016 23.016 0 0 0 5.7-4.711c2.1-2.4 2.727-4.848 2.727-8.162 0-3.111-3.9-5.982-5.732-5.937a7.858 7.858 0 0 0-2.234-5.541c1.454.29 2.029-.876 3-1.067.56-.111 1.119.527 1.9.527a4.4 4.4 0 0 0 1.754-.384 8.394 8.394 0 0 0-3.7-4.532c-2.81-1.732-6.357-2.333-8.557-4.469a5.508 5.508 0 0 0 3.7 4.372s-1.562 0-3.75-1.993A7.227 7.227 0 0 0 40.12 15.1a5.948 5.948 0 0 1-2.92-1.406c.254 1.947 2.345 3.4 2.345 3.4a1.744 1.744 0 0 1-1.117-.336c-2.248 2.715-2.248 7.2-2.921 8.8a1.813 1.813 0 0 1-.289-1.264c-5.427 3.623-9.974 11.836-10.774 13.334a18.633 18.633 0 0 0 4.04-1.772 2.254 2.254 0 0 1 1.229-2.41" fill="#d31245"/><path d="M45.141 18.753c.024.012.046.025.07.039.161.2.66.4.221 1.063-.34-.9-.942-.7-.942-.7a1.027 1.027 0 0 1 .017-.105.892.892 0 0 0-.236.609.9.9 0 1 0 .9-.9zM18.296 70.294h-.009l-.525-1.469h-.795v2.249h.459v-1.79h.01l.63 1.79h.446l.652-1.79h.01v1.79h.458v-2.249h-.79l-.546 1.469zm-3.558-1.068h.68v1.848h.46v-1.848h.677v-.401h-1.817v.401z" fill="#002b5c"/></g></svg>